<?xml version="1.0" standalone="no"?>
<!DOCTYPE svg PUBLIC "-//W3C//DTD SVG 20010904//EN"
 "http://www.w3.org/TR/2001/REC-SVG-20010904/DTD/svg10.dtd">
<svg version="1.0" xmlns="http://www.w3.org/2000/svg"
 width="2348.000000pt" height="1824.000000pt" viewBox="0 0 2348.000000 1824.000000"
 preserveAspectRatio="xMidYMid meet">

<g transform="translate(0.000000,1824.000000) scale(0.100000,-0.100000)"
fill="#5F6F4C" stroke="none">
<path d="M12325 15944 c-282 -22 -682 -117 -925 -219 -522 -218 -872 -568
-994 -993 -37 -126 -58 -291 -52 -387 12 -158 79 -354 165 -479 40 -57 185
-194 251 -237 250 -162 520 -231 905 -232 228 -1 331 11 532 58 365 87 708
274 932 507 235 245 346 490 358 789 6 155 -8 244 -56 344 -71 150 -244 283
-449 345 l-71 22 21 51 c49 123 138 369 138 382 0 16 -13 20 -115 36 -70 11
-545 20 -640 13z m420 -182 c129 -16 140 -19 137 -37 -2 -11 -17 -71 -34 -133
-25 -89 -35 -111 -47 -108 -67 20 -204 28 -370 23 -191 -6 -202 -7 -334 -33
-235 -46 -477 -175 -576 -307 -100 -132 -132 -267 -91 -377 13 -34 26 -58 30
-53 4 4 17 40 29 78 46 144 157 310 262 393 189 147 426 222 708 222 119 0
304 -19 318 -34 23 -22 -131 -338 -230 -472 -224 -305 -485 -414 -992 -414
-99 0 -195 -4 -214 -10 -61 -17 -105 -57 -154 -137 -60 -101 -67 -119 -41
-109 10 4 123 12 249 16 315 12 449 42 658 146 251 125 464 312 619 545 69
103 161 273 202 372 8 20 17 37 20 37 29 0 157 -83 203 -131 47 -50 109 -173
135 -269 19 -72 23 -108 22 -235 0 -170 -22 -279 -88 -441 -75 -185 -226 -375
-405 -509 -171 -130 -417 -233 -656 -276 -107 -19 -145 -21 -355 -16 -167 4
-257 10 -310 22 -326 73 -576 240 -707 474 -90 159 -118 270 -118 461 1 439
246 883 606 1097 217 129 412 194 669 223 58 6 112 13 120 15 43 11 608 -7
735 -23z"/>
<path d="M13925 14880 c-236 -87 -237 -87 -233 -119 2 -17 8 -25 18 -22 50 13
123 13 131 0 27 -42 8 -101 -113 -349 -120 -246 -255 -571 -283 -679 -34 -131
-11 -231 57 -249 49 -12 141 4 207 37 125 64 378 285 527 462 37 43 68 78 70
77 1 -2 -18 -61 -42 -133 -25 -71 -61 -191 -80 -265 -44 -175 -44 -198 -1
-180 12 5 76 30 142 56 65 25 164 68 218 95 88 45 97 52 91 72 -9 32 -8 31
-72 13 -69 -19 -104 -20 -120 -4 -18 18 -14 88 9 164 26 86 148 385 229 564
88 194 210 482 206 487 -1 2 -165 -34 -206 -45 -20 -6 -33 -28 -70 -117 -97
-232 -266 -529 -405 -711 -124 -162 -316 -343 -410 -385 -46 -21 -105 -25
-123 -7 -20 20 -14 102 14 190 23 75 55 145 224 503 155 327 166 356 236 598
8 27 -16 21 -221 -53z"/>
<path d="M15345 14917 c-33 -18 -114 -67 -180 -108 -66 -42 -142 -88 -168
-104 -40 -23 -47 -31 -41 -49 9 -31 9 -31 63 -7 150 64 160 -5 44 -334 -19
-55 -52 -149 -73 -210 -20 -60 -69 -193 -107 -295 -97 -256 -136 -370 -131
-375 10 -10 214 46 225 62 7 9 42 107 79 217 72 221 119 342 175 456 124 254
297 459 455 536 75 37 83 39 177 39 112 0 104 -6 143 102 26 71 23 90 -13 99
-136 35 -341 -104 -616 -416 l-57 -65 31 90 c39 115 67 238 69 295 3 72 1 100
-7 100 -5 0 -35 -15 -68 -33z"/>
<path d="M9220 14180 c-520 -89 -867 -241 -1220 -533 -213 -177 -410 -429
-554 -708 l-59 -115 -136 13 c-75 6 -175 15 -223 19 -64 5 -88 11 -88 20 0 8
13 55 30 106 77 243 163 636 184 852 6 57 6 58 -16 53 -13 -3 -72 -26 -133
-51 -186 -79 -504 -206 -515 -206 -10 0 -5 -62 6 -81 2 -4 52 9 111 28 210 67
244 24 192 -244 -29 -156 -100 -415 -118 -435 -11 -12 -755 74 -1150 133 -59
9 -76 8 -86 -3 -12 -12 -108 -250 -103 -253 2 -1 32 -7 67 -13 76 -14 198 -69
256 -117 57 -47 111 -128 142 -216 25 -70 27 -84 27 -249 -1 -142 -4 -188 -20
-243 l-19 -69 -35 49 c-115 161 -440 490 -625 634 -290 225 -586 383 -841 448
-163 41 -279 54 -444 48 -320 -12 -558 -98 -795 -289 -197 -158 -336 -398
-396 -678 -31 -147 -31 -381 1 -524 95 -431 371 -766 795 -967 269 -127 592
-180 906 -149 382 38 674 144 1066 384 194 120 491 367 643 537 41 46 101 111
132 145 71 78 234 296 323 433 73 113 249 460 293 579 l27 74 60 -6 c33 -4
116 -11 185 -17 188 -15 192 -16 179 -40 -6 -12 -26 -69 -45 -127 -156 -482
-202 -956 -124 -1261 26 -102 82 -236 131 -311 121 -187 369 -340 626 -384
224 -39 528 -2 726 88 188 87 425 291 560 483 195 278 256 535 160 676 -14 20
-30 37 -34 37 -5 0 -9 -26 -9 -59 0 -73 -24 -216 -51 -300 -79 -249 -290 -479
-530 -579 -177 -73 -388 -111 -558 -99 -175 13 -364 79 -469 165 -208 170
-315 483 -298 871 8 175 36 381 71 521 27 107 71 248 83 268 10 15 -21 15 342
6 608 -14 1027 55 1442 240 285 127 594 417 727 683 138 277 70 536 -174 658
-118 59 -206 77 -400 81 -93 1 -195 -1 -225 -6z m275 -179 c274 -76 421 -246
401 -463 -12 -131 -67 -240 -180 -353 -86 -87 -132 -119 -273 -189 -319 -160
-710 -225 -1278 -212 -342 8 -509 16 -527 27 -10 6 5 43 61 156 133 265 230
409 381 567 268 280 568 433 955 490 17 2 109 3 205 2 145 -3 189 -7 255 -25z
m-5525 -1136 c463 -100 935 -423 1464 -1005 72 -80 159 -179 192 -220 33 -41
86 -108 118 -147 32 -40 60 -73 62 -73 6 0 42 126 63 224 66 304 88 583 57
734 -21 105 -45 165 -101 258 -25 41 -45 76 -45 78 0 2 17 0 38 -4 20 -5 64
-11 97 -15 33 -3 175 -19 315 -35 140 -16 279 -32 309 -36 52 -6 53 -6 47 -34
-13 -67 -118 -312 -226 -525 -202 -401 -357 -623 -601 -862 -115 -112 -145
-137 -279 -225 -199 -133 -445 -231 -695 -279 -157 -30 -493 -37 -669 -15
-536 69 -969 342 -1166 736 -100 200 -140 360 -140 559 0 249 58 423 199 595
132 163 299 261 509 301 98 18 346 13 452 -10z"/>
<path d="M16650 13733 c-74 -30 -214 -86 -310 -123 l-175 -68 -3 -41 c-3 -39
-2 -41 20 -36 159 37 157 36 193 19 33 -15 35 -19 35 -65 0 -61 -56 -218 -182
-512 -85 -200 -134 -314 -293 -692 -38 -88 -124 -297 -192 -465 -324 -795
-360 -908 -351 -1105 3 -80 8 -98 30 -133 39 -58 99 -79 176 -63 102 23 288
140 454 287 46 40 51 50 39 73 -20 36 -39 31 -113 -25 -74 -55 -158 -94 -203
-94 -30 0 -62 30 -71 66 -21 84 19 217 204 669 265 649 275 672 452 1085 103
241 221 529 304 741 29 75 99 325 116 414 7 33 10 74 8 91 l-3 32 -135 -55z"/>
<path d="M15521 13143 c-54 -27 -91 -87 -91 -145 0 -60 10 -80 53 -107 88 -54
196 -8 228 98 33 110 -87 207 -190 154z"/>
<path d="M12350 12886 c-12 -29 -137 -377 -142 -396 -6 -21 -456 -54 -508 -37
-55 18 -298 11 -441 -12 -200 -33 -460 -124 -684 -240 -262 -135 -477 -293
-701 -516 -342 -339 -534 -702 -534 -1011 0 -156 66 -238 191 -236 78 1 127
16 232 69 229 115 397 246 734 577 l163 159 -24 -59 c-13 -32 -53 -131 -89
-219 -36 -88 -77 -198 -91 -245 -32 -106 -68 -272 -60 -279 9 -9 342 108 444
155 116 55 250 134 250 148 -1 6 -10 22 -21 35 l-19 24 -76 -32 c-41 -17 -94
-34 -117 -37 -59 -8 -72 8 -64 86 9 79 30 141 136 388 103 241 107 225 -55
197 -53 -9 -98 -14 -100 -12 -2 2 14 32 36 66 59 91 115 207 140 289 29 97 26
235 -7 302 -26 52 -69 107 -77 100 -3 -4 -21 -67 -41 -140 -44 -166 -71 -239
-150 -405 -89 -188 -170 -313 -318 -493 -236 -285 -467 -462 -605 -462 -90 0
-122 53 -122 203 0 223 106 469 314 728 166 207 362 369 596 491 171 89 326
137 525 163 128 17 348 19 455 4 107 -15 102 -7 59 -115 -42 -104 -94 -263
-88 -268 2 -2 21 -1 43 3 l39 6 47 125 c60 161 74 186 104 194 45 11 210 26
294 26 98 0 96 21 15 -180 -31 -74 -70 -172 -89 -217 -81 -199 -107 -231 -209
-258 -32 -8 -60 -17 -62 -19 -3 -2 -38 -96 -79 -208 -41 -111 -101 -273 -134
-358 -32 -85 -90 -240 -129 -345 -38 -104 -97 -262 -131 -350 -34 -88 -86
-223 -115 -300 -182 -475 -229 -594 -283 -717 l-60 -138 32 0 c37 0 150 37
213 69 51 25 60 46 227 481 63 162 209 538 331 850 46 118 104 267 128 330 44
114 80 203 283 720 58 146 128 324 155 395 28 72 61 155 74 185 l22 55 89 -1
c210 -4 344 -116 375 -314 23 -149 1 -332 -60 -498 -162 -438 -428 -713 -690
-712 -45 0 -70 8 -129 39 -84 45 -82 46 -103 -56 -11 -54 -11 -64 4 -87 39
-59 146 -83 248 -56 116 31 295 148 422 274 288 284 483 628 538 944 23 136
24 224 4 326 -46 246 -194 364 -492 397 l-111 13 10 25 c6 14 41 110 78 214
60 167 65 187 49 189 -71 6 -81 5 -89 -16z"/>
<path d="M13861 12693 c-40 -115 -77 -212 -81 -216 -4 -5 -117 -15 -250 -22
-176 -10 -246 -18 -251 -27 -15 -24 -209 -548 -209 -565 0 -5 43 -3 67 3 16 5
28 27 53 97 18 51 45 120 60 153 27 61 29 62 81 74 30 7 122 15 206 17 l152 6
-113 -279 c-62 -154 -117 -288 -123 -299 -22 -39 -59 -65 -128 -86 -39 -12
-73 -26 -77 -33 -10 -15 -63 -153 -151 -396 -91 -249 -216 -582 -324 -865 -44
-115 -126 -330 -182 -477 -131 -346 -200 -518 -240 -595 l-31 -63 29 0 c45 0
229 65 256 90 14 13 27 33 31 44 3 12 21 59 39 106 18 47 71 182 118 300 46
118 103 265 127 325 69 180 82 214 231 595 78 201 166 426 194 500 29 74 79
203 112 285 33 83 81 206 107 275 25 69 86 224 134 345 l88 220 95 -1 c184 -3
303 -84 356 -244 22 -69 25 -314 5 -400 -71 -292 -230 -578 -414 -744 -148
-134 -342 -172 -463 -90 -20 13 -42 24 -49 24 -17 0 -46 -76 -46 -121 0 -102
126 -147 272 -98 92 31 145 60 255 142 280 208 522 541 642 881 45 127 64 243
64 381 0 103 -4 131 -27 199 -51 151 -130 231 -278 285 -29 10 -69 22 -88 25
-19 3 -44 8 -55 10 -11 2 -55 7 -97 11 l-77 7 19 49 c11 27 45 120 75 206 61
170 61 173 -5 173 l-35 0 -74 -207z"/>
<path d="M15335 12471 c-60 -24 -207 -81 -325 -126 l-214 -81 -4 -42 c-4 -51
-4 -51 113 -12 105 35 147 38 175 10 38 -38 27 -80 -85 -340 -35 -80 -80 -181
-100 -225 -227 -488 -338 -761 -375 -920 -23 -99 -50 -256 -50 -290 0 -24 1
-24 33 -10 17 8 100 40 182 71 154 58 361 156 404 191 l25 20 -25 27 -25 27
-50 -21 c-62 -27 -134 -36 -162 -21 -15 8 -22 21 -22 41 0 68 80 275 260 675
127 281 206 476 259 632 73 220 123 426 104 435 -4 2 -57 -16 -118 -41z"/>
<path d="M16830 12349 c-58 -32 -132 -73 -165 -90 -33 -18 -99 -54 -147 -81
-84 -47 -88 -51 -88 -84 0 -39 3 -40 71 -18 60 20 133 14 160 -13 54 -53 39
-303 -42 -693 -44 -213 -88 -405 -111 -490 -86 -321 -108 -406 -108 -418 0
-10 12 -13 43 -10 l42 4 125 236 c285 539 505 849 811 1145 149 144 255 215
357 240 58 15 66 15 97 0 94 -45 109 -231 39 -476 -31 -106 -153 -357 -231
-473 -194 -288 -408 -495 -631 -608 -139 -70 -253 -99 -571 -145 -383 -55
-465 -87 -621 -244 -101 -102 -172 -209 -212 -316 -17 -47 -22 -82 -22 -165
-1 -99 1 -109 33 -178 55 -116 168 -204 315 -245 103 -28 319 -35 406 -13 136
35 205 91 265 213 20 41 34 77 31 80 -2 3 -42 -13 -88 -36 -160 -79 -353 -107
-539 -78 -159 24 -261 82 -314 179 -25 45 -30 63 -29 120 2 82 28 141 93 206
91 91 229 147 460 188 329 58 511 115 686 216 69 40 88 53 250 174 116 86 455
427 575 579 185 233 339 490 415 690 35 95 66 253 71 365 5 143 -17 219 -79
270 -60 48 -182 24 -331 -64 -203 -121 -571 -476 -836 -806 -64 -79 -144 -165
-136 -145 17 47 57 225 76 345 30 191 43 384 37 530 -6 141 -12 170 -36 169
-9 -1 -63 -28 -121 -60z"/>
<path d="M4604 9925 c-403 -46 -717 -159 -1029 -368 -345 -232 -531 -437 -647
-717 -98 -236 -93 -588 12 -798 99 -197 315 -369 574 -456 255 -85 433 -111
716 -103 107 3 218 9 245 12 336 43 596 124 794 248 l63 40 57 -31 c338 -185
586 -280 697 -269 72 7 93 19 423 234 145 95 236 197 288 323 37 90 26 222
-20 252 -19 12 -24 1 -30 -62 -34 -321 -344 -577 -645 -533 -42 6 -99 19 -127
28 -73 25 -247 109 -352 172 l-93 55 44 61 c96 135 146 276 147 412 1 135 -44
278 -109 348 l-26 27 70 0 c38 0 99 3 135 6 l67 7 40 91 c22 50 38 94 35 99
-5 8 -410 8 -538 -2 -49 -3 -89 -10 -89 -15 1 -5 22 -21 45 -34 100 -55 149
-113 190 -221 24 -64 49 -196 49 -256 -1 -123 -76 -326 -159 -426 l-20 -24
-63 34 c-35 19 -99 57 -143 85 -44 29 -120 74 -168 101 -49 28 -110 63 -135
78 -66 39 -326 165 -357 173 -14 3 -24 9 -21 12 3 3 43 17 90 33 117 38 319
139 397 198 130 99 257 255 329 406 40 83 89 233 148 450 l49 180 219 3 c227
3 340 -7 401 -36 42 -20 49 -56 28 -147 -17 -77 -13 -87 39 -83 29 3 30 4 87
203 32 110 59 206 59 213 0 18 -1607 15 -1766 -3z m604 -151 l113 -6 -7 -37
c-13 -78 -87 -348 -120 -440 -41 -113 -136 -298 -192 -373 -98 -131 -265 -255
-407 -299 -58 -19 -191 -39 -253 -39 -34 0 -138 9 -230 21 -155 19 -270 21
-316 3 -15 -6 -75 -94 -109 -160 l-16 -30 177 0 c137 1 195 -3 257 -17 44 -10
89 -20 99 -23 44 -8 242 -77 319 -110 139 -59 201 -96 640 -373 31 -20 57 -39
57 -43 0 -11 -120 -87 -196 -123 -108 -51 -167 -72 -299 -105 -312 -78 -648
-79 -940 -3 -300 77 -529 263 -649 526 -56 122 -71 208 -70 397 1 144 4 178
27 263 70 262 240 497 473 653 169 113 414 215 619 258 100 21 352 55 475 64
108 8 349 6 548 -4z"/>
<path d="M11849 9067 c-25 -23 -81 -85 -125 -137 -43 -52 -117 -138 -164 -190
-160 -177 -426 -490 -637 -750 -348 -429 -778 -947 -937 -1130 -65 -74 -127
-146 -139 -160 -340 -396 -856 -920 -1182 -1201 -194 -166 -278 -230 -466
-356 -250 -168 -616 -363 -879 -468 -90 -37 -170 -71 -177 -76 -16 -14 -186
-360 -179 -366 2 -3 78 2 168 11 319 31 537 38 857 26 346 -12 430 -18 876
-60 342 -32 418 -40 425 -45 4 -2 99 -12 211 -21 298 -24 612 -15 769 20 289
66 521 177 785 376 104 78 288 254 357 342 144 182 242 448 201 546 -19 45
-100 142 -120 142 -8 0 -11 -4 -8 -10 8 -13 -20 -173 -46 -270 -61 -220 -191
-413 -371 -549 -123 -93 -333 -177 -538 -217 -126 -24 -424 -24 -640 0 -85 10
-191 21 -235 26 -83 9 -198 22 -345 40 -384 47 -746 65 -1150 57 -179 -4 -344
-10 -367 -13 -24 -4 -43 -3 -43 2 0 5 35 33 78 61 211 142 393 273 606 437
213 165 425 357 866 786 l305 297 140 12 c77 6 192 17 255 24 161 17 779 16
895 -1 229 -34 265 -63 265 -209 0 -43 -9 -121 -20 -173 -11 -52 -20 -96 -20
-97 0 -2 31 -3 70 -3 l69 0 10 38 c5 20 22 82 36 137 15 55 40 147 55 205 15
58 49 179 74 269 25 91 46 170 46 177 0 24 -463 34 -1070 24 -234 -4 -427 -5
-429 -4 -4 3 51 70 189 229 113 130 277 327 490 590 85 105 204 249 264 320
60 72 137 163 170 204 85 103 198 234 267 308 31 34 68 76 80 92 13 17 27 31
31 31 5 0 7 -4 4 -8 -3 -5 -8 -33 -11 -63 -3 -30 -11 -99 -18 -154 -19 -158
-15 -637 6 -845 33 -315 88 -648 146 -880 7 -25 28 -110 47 -190 19 -80 53
-206 76 -280 22 -74 53 -180 69 -235 77 -262 179 -570 252 -760 36 -95 186
-463 216 -530 10 -22 49 -108 86 -192 37 -84 72 -158 78 -166 13 -16 46 20
390 418 86 99 176 203 201 230 25 28 45 55 46 61 0 7 -18 28 -40 47 l-39 36
-63 -63 c-101 -101 -171 -127 -229 -85 -59 41 -154 212 -241 429 -42 104 -202
565 -216 620 -6 25 -34 120 -61 212 -55 182 -174 652 -215 843 -66 309 -128
716 -141 925 -4 58 -8 116 -10 129 -2 13 -7 136 -11 275 -11 440 20 596 165
811 23 33 41 65 41 70 0 8 -90 66 -101 65 -2 -1 -25 -20 -50 -43z"/>
<path d="M9085 8993 c-250 -57 -549 -251 -728 -473 -168 -208 -286 -453 -326
-674 -17 -95 -14 -224 8 -271 32 -72 114 -125 191 -125 56 0 170 32 245 69
237 115 478 342 570 536 22 45 31 158 17 195 -9 23 -14 15 -66 -92 -149 -311
-412 -548 -607 -548 -56 0 -64 3 -94 33 -43 43 -58 101 -52 197 7 105 14 139
54 259 59 180 180 399 291 529 106 125 283 224 400 226 58 1 66 -2 88 -27 31
-36 31 -75 0 -135 -78 -150 -284 -251 -488 -240 -48 3 -88 4 -88 2 0 -19 30
-59 58 -76 29 -17 43 -20 96 -14 92 9 157 31 282 92 315 155 484 439 313 526
-32 17 -114 22 -164 11z"/>
<path d="M9670 8942 c-52 -32 -155 -91 -227 -132 -130 -73 -144 -87 -123 -120
7 -12 15 -11 53 8 49 24 87 28 105 10 37 -37 -19 -254 -173 -673 -36 -99 -73
-200 -82 -225 -8 -25 -33 -92 -55 -150 -23 -58 -46 -124 -54 -147 l-12 -41 89
24 c50 13 99 24 110 24 23 0 40 36 88 185 18 55 36 109 41 120 5 11 37 94 71
185 105 281 210 453 373 615 74 73 119 109 170 135 63 31 77 34 169 37 56 2
104 6 108 10 3 5 12 24 19 43 7 19 19 52 26 73 21 58 7 77 -59 77 -75 0 -107
-12 -205 -76 -64 -41 -133 -103 -259 -231 l-173 -176 21 59 c28 80 65 208 78
272 13 60 15 152 4 152 -5 0 -51 -26 -103 -58z"/>
<path d="M7275 8961 c-62 -22 -124 -54 -193 -98 -79 -50 -91 -64 -81 -91 l9
-23 57 29 c89 44 109 47 138 18 24 -24 25 -30 25 -149 0 -170 -17 -261 -97
-517 -65 -208 -88 -274 -159 -463 -60 -158 -72 -197 -59 -197 29 0 454 251
580 343 263 191 428 362 591 613 70 106 113 191 208 408 36 81 35 86 -21 87
-66 0 -503 18 -531 21 -21 3 -29 -10 -74 -112 -71 -163 -107 -258 -100 -264
17 -17 44 0 82 52 75 102 85 106 281 110 131 3 169 1 169 -8 0 -32 -46 -163
-85 -242 -107 -216 -336 -462 -571 -614 -104 -67 -253 -148 -260 -141 -3 3 17
59 44 124 48 114 103 275 156 453 79 264 102 498 59 591 -41 91 -74 104 -168
70z"/>
<path d="M16075 8719 c-391 -77 -975 -416 -1313 -762 -207 -211 -281 -322
-472 -702 -91 -181 -125 -239 -162 -276 -78 -78 -186 -119 -310 -119 l-79 0
-18 -42 c-40 -91 -55 -83 155 -85 103 -1 189 -4 191 -7 3 -3 -23 -85 -57 -183
-34 -98 -102 -297 -150 -443 -110 -328 -194 -575 -255 -745 -26 -71 -73 -206
-105 -300 -32 -93 -75 -215 -95 -270 -21 -55 -62 -170 -92 -255 -228 -645
-471 -1205 -618 -1425 -55 -82 -67 -98 -147 -195 -159 -192 -410 -324 -668
-351 -127 -13 -212 -6 -348 28 -79 19 -106 23 -115 14 -7 -7 -12 -44 -12 -89
0 -66 4 -84 27 -124 56 -95 141 -132 298 -131 151 1 273 39 437 139 72 43 106
67 173 119 61 47 252 249 326 345 156 202 373 601 544 1005 40 94 86 189 103
212 35 50 93 81 165 90 34 4 52 11 55 22 5 15 29 84 143 399 25 70 68 188 94
262 27 74 72 198 100 275 28 77 84 235 125 350 40 116 82 233 93 260 11 28 63
176 115 330 129 379 182 529 211 600 l24 60 275 3 275 2 12 30 c7 16 17 34 24
39 8 7 406 22 406 15 0 -5 -55 -145 -70 -179 -10 -22 -53 -123 -95 -225 -43
-102 -88 -209 -101 -238 -13 -29 -24 -54 -24 -57 0 -2 -22 -51 -49 -108 -66
-140 -169 -368 -224 -497 -25 -58 -57 -132 -72 -165 -15 -33 -37 -82 -49 -110
-12 -27 -29 -66 -36 -85 -7 -19 -17 -40 -21 -45 -10 -14 -169 -410 -199 -495
-39 -114 -61 -222 -54 -265 9 -61 48 -120 99 -149 39 -23 56 -27 132 -27 176
-1 363 51 577 161 130 67 336 194 336 207 0 4 -16 24 -36 44 l-36 37 -55 -35
c-85 -54 -251 -131 -323 -149 -72 -18 -149 -14 -186 11 -35 23 -57 73 -56 130
0 69 62 257 143 432 10 24 19 45 19 47 0 2 18 43 40 90 22 47 40 88 40 91 0 5
66 156 232 525 97 218 121 270 256 570 71 157 146 329 167 383 l39 97 243 0
242 0 20 44 c42 95 64 86 -204 86 -186 0 -236 3 -232 13 3 6 40 93 82 192 86
202 118 284 145 368 17 53 17 57 2 53 -22 -7 -238 -36 -318 -43 l-62 -6 -32
-76 c-53 -123 -146 -307 -178 -353 -39 -56 -80 -94 -117 -108 -55 -21 -180
-40 -261 -40 l-81 0 -24 -37 -24 -38 -269 -5 c-147 -3 -269 -3 -271 0 -10 19
228 581 323 760 112 214 246 403 364 516 60 58 188 149 265 187 124 63 325
102 498 96 242 -9 297 -94 225 -353 -17 -60 -29 -110 -27 -113 2 -2 27 -6 54
-10 43 -5 51 -3 56 13 3 11 20 57 37 104 41 111 120 340 159 464 38 117 34
140 -32 177 -37 20 -57 23 -162 26 -66 1 -142 -3 -170 -8z"/>
<path d="M17845 6953 c-80 -12 -233 -56 -334 -94 -140 -52 -220 -93 -395 -203
-222 -138 -322 -219 -519 -421 -365 -373 -643 -853 -747 -1290 -88 -368 -59
-632 84 -763 74 -67 138 -87 276 -87 228 1 438 89 765 319 265 187 604 547
709 754 35 70 86 219 86 254 0 61 -42 188 -62 188 -3 0 -18 -33 -33 -72 -114
-309 -388 -698 -633 -901 -240 -199 -429 -275 -610 -247 -95 16 -142 46 -179
117 -53 100 -61 179 -37 393 13 124 73 353 131 505 81 210 264 544 395 720
100 135 298 334 397 399 139 92 366 176 476 176 142 0 207 -85 175 -229 -43
-197 -254 -384 -535 -475 -198 -64 -342 -79 -495 -52 -41 8 -77 12 -79 10 -18
-16 62 -133 112 -165 28 -18 43 -20 117 -15 94 7 221 33 320 66 162 54 489
238 615 345 68 58 196 190 239 246 79 104 136 239 136 321 0 77 -51 155 -120
185 -36 15 -198 26 -255 16z"/>
<path d="M18970 6925 c-78 -57 -352 -229 -430 -269 -109 -56 -340 -190 -340
-198 0 -3 9 -27 20 -52 l19 -46 78 39 c133 68 186 63 220 -17 18 -44 11 -86
-53 -320 -61 -221 -219 -684 -329 -962 -8 -19 -30 -82 -51 -140 -20 -58 -75
-206 -121 -330 -76 -200 -133 -354 -165 -445 -6 -16 -15 -35 -19 -41 -17 -22
3 -21 69 3 37 14 130 39 206 57 l139 32 43 124 c140 414 255 735 304 850 10
25 33 79 51 120 96 227 261 515 399 698 99 132 299 336 405 413 88 64 213 124
302 145 53 13 98 15 205 10 l137 -6 12 43 c6 23 31 95 56 161 36 95 42 120 32
127 -8 5 -45 16 -84 25 -65 15 -75 15 -135 0 -139 -35 -287 -124 -470 -281
-128 -110 -503 -483 -565 -563 -43 -54 -72 -75 -62 -45 3 10 20 58 37 107 85
245 148 499 157 627 6 94 -1 170 -15 168 -4 0 -27 -15 -52 -34z"/>
</g>
</svg>
