<?xml version="1.0" standalone="no"?>
<!DOCTYPE svg PUBLIC "-//W3C//DTD SVG 20010904//EN"
 "http://www.w3.org/TR/2001/REC-SVG-20010904/DTD/svg10.dtd">
<svg version="1.0" xmlns="http://www.w3.org/2000/svg"
 width="1325.000000pt" height="568.000000pt" viewBox="0 0 1325.000000 568.000000"
 preserveAspectRatio="xMidYMid meet">

<g transform="translate(0.000000,568.000000) scale(0.100000,-0.100000)"
fill="#97A97C" stroke="none">
<path d="M4396 4791 c-4 -6 -8 -35 -9 -64 -3 -75 10 -87 90 -87 35 0 85 -5
111 -10 26 -6 70 -16 97 -22 102 -22 143 -59 172 -153 18 -58 18 -2822 0
-2880 -21 -70 -53 -111 -99 -127 -78 -28 -122 -38 -236 -57 -62 -10 -119 -24
-125 -30 -13 -13 -15 -71 -3 -115 l7 -29 142 7 c78 4 178 12 222 17 122 14
393 11 611 -7 108 -8 202 -13 210 -10 10 4 14 24 14 69 0 61 -1 65 -27 75 -16
6 -50 14 -78 17 -73 10 -182 36 -235 57 -55 23 -76 38 -94 73 -43 83 -46 169
-46 1488 0 1379 -5 1288 64 1205 39 -48 266 -334 329 -417 23 -30 56 -70 73
-90 16 -20 97 -121 179 -226 83 -104 157 -199 167 -210 66 -79 228 -289 228
-296 0 -5 -26 -48 -58 -96 -148 -222 -247 -481 -294 -768 -17 -105 -17 -458 0
-545 7 -36 18 -90 24 -120 10 -52 68 -241 87 -285 5 -11 17 -38 26 -60 78
-184 185 -336 360 -511 109 -110 165 -157 255 -216 242 -157 454 -238 755
-288 83 -14 585 -8 715 8 185 23 418 82 552 140 170 74 178 83 221 222 56 185
134 591 120 626 -14 38 -139 67 -167 39 -9 -9 -16 -26 -16 -37 0 -28 -54 -185
-95 -274 -67 -146 -191 -293 -324 -383 -69 -47 -228 -125 -276 -135 -16 -4
-61 -14 -100 -23 -97 -22 -361 -23 -470 -1 -113 23 -193 45 -242 68 -24 11
-46 20 -50 20 -14 0 -172 97 -240 147 -77 58 -191 174 -257 263 -158 214 -261
463 -325 790 -34 175 -42 461 -16 628 22 145 77 349 105 391 15 22 18 19 150
-149 74 -94 220 -277 324 -408 104 -130 245 -309 314 -396 68 -87 131 -166
138 -175 84 -104 122 -149 139 -164 36 -32 114 -67 148 -67 60 0 64 14 56 195
-4 88 -8 593 -8 1123 l-1 962 58 0 c144 -1 334 -49 461 -117 88 -48 112 -66
195 -148 117 -115 192 -249 237 -421 11 -44 27 -85 36 -91 37 -28 141 -4 164
38 9 18 2 86 -21 214 -5 28 -17 100 -25 160 -15 98 -47 307 -60 391 -9 54 -10
54 -240 94 -60 10 -159 23 -220 30 -60 6 -149 15 -196 20 -47 6 -147 10 -221
10 -75 0 -143 3 -152 6 -14 5 -16 45 -16 348 1 356 7 430 45 494 32 54 131 86
342 113 89 11 92 13 98 40 4 15 3 49 -1 75 l-7 47 -146 -9 c-182 -11 -605 -10
-854 1 -158 7 -190 6 -198 -6 -11 -17 -12 -110 -1 -125 4 -6 50 -16 102 -23
103 -14 225 -44 277 -69 35 -17 65 -70 83 -144 5 -24 10 -199 10 -395 l0 -353
-26 0 c-28 0 -120 -14 -214 -32 -71 -14 -210 -53 -280 -80 -87 -33 -269 -128
-337 -175 -34 -24 -68 -43 -77 -43 -8 0 -29 19 -48 43 -18 23 -37 47 -43 53
-21 24 -293 354 -668 814 -118 145 -343 439 -376 493 -12 20 -26 37 -29 37 -4
0 -155 2 -337 4 -181 2 -396 7 -476 11 -105 6 -148 5 -153 -4z m3063 -1978 l0
-668 -24 30 c-14 17 -81 107 -151 200 -70 94 -141 188 -159 210 -17 22 -75 94
-127 160 -53 66 -128 161 -168 210 -40 50 -77 96 -83 103 -7 9 8 30 59 81 69
68 207 181 220 181 4 0 15 6 23 14 65 56 291 140 389 145 l22 1 -1 -667z"/>
</g>
</svg>
